<svg id="Layer_1" data-name="Layer 1" xmlns="http://www.w3.org/2000/svg" viewBox="0 0 512 512"><title>thumb-down-outline</title><path d="M61.81,70.51h61.69q42.64-47.27,92.33-69.32Q231.56,0,239,0q21.11,0,48,7.21L302,0h17.8q60.88,0,60.87,42.06a47.32,47.32,0,0,1-.83,7.21q44.73,3.62,44.71,41.34a106.23,106.23,0,0,1-.82,11.24q16.55,4.37,25.05,14.32t8.48,25.05q0,12.34-8.73,26.25,22,23.32,22,51.85,0,33-36.85,53.05t-97.71,20.1H325.56a209.19,209.19,0,0,0,22.77,69.71L355,373.39q21.52,39.65,21.54,61.29,0,59.71-65,74.52l-12,2.8-20.7-88.94-76.59-78.92q-7.87-8.81-27.33-34.06l-11.59-14.82Q144.63,270.83,137,265.41T112.33,260H63.88q-22.36-46.07-22.36-94.54Q41.53,118.19,61.81,70.51ZM75.48,91.33Q62.63,127.79,62.65,161a221.24,221.24,0,0,0,14.08,77.32q52.17,0,65.42,6t39.75,42.06q10.76,14,31.88,39.66L297,411.85,313.56,486q41.39-13.62,41.4-51.29,0-19.62-14.08-42.46l-5.38-8.82Q303.2,331.33,303.21,284l-.42-11.22h14.94q66,0,99.23-12.67t33.22-38.4q0-23.33-17.22-39.41t-42.09-16.08H365.59l-75.22,32.68q17,25,45.55,25,7.44,0,19-3.22A250.41,250.41,0,0,0,382.28,211l19.47-.81,19.45,20.13-33.54.39a171.28,171.28,0,0,1-26.5,8.82,96.94,96.94,0,0,1-21.94,2.8q-53,0-77.42-52.32l14.08-6.46q-26.09-12.31-40.17-42.91L251.86,134q-19.06-11.62-35.2-39.63l25.67-11.82q-21.11-14.82-33.95-42.06l50.92-22A114.46,114.46,0,0,0,238.19,16L222,16.42Q167,47.28,132.62,91.33ZM238.19,48.47q2.89,3.6,4.56,5.61a90.19,90.19,0,0,0,19.87,19.63l59.21-25.64h38.51v-2.4q0-26.83-40.47-26.84H306.1Zm8.7,54.19q2.07,2.43,3.31,4a71.89,71.89,0,0,0,23.61,17.79l63.35-27.14h67.07l1.25-5.15q0-23.69-48.45-23.69H326Zm17.4,46.77q14.48,18.55,34.78,23.68l62.09-26.49H383q30.86,0,46.93,8.41c3.58-4.77,5.38-9.25,5.38-13.48q0-12.29-12.63-18.44T384.77,117H340.88Z" fill="#737277"/></svg>